<?xml version="1.0" standalone="no"?><!DOCTYPE svg PUBLIC "-//W3C//DTD SVG 1.1//EN" "http://www.w3.org/Graphics/SVG/1.1/DTD/svg11.dtd"><svg t="1736236716925" class="icon" viewBox="0 0 1024 1024" version="1.1" xmlns="http://www.w3.org/2000/svg" p-id="2665" xmlns:xlink="http://www.w3.org/1999/xlink" width="200" height="200"><path d="M512 63.7C264.4 63.7 63.7 264.4 63.7 512S264.4 960.3 512 960.3 960.3 759.6 960.3 512 759.6 63.7 512 63.7z m198.5 557.8c-10 26.1-23.4 50.8-39.9 73.4 25 7.8 42.1 30.9 42.4 57.1 0 0 1.6 45.8-99.4 42.7 0 0-70.9-5.5-92.1-35.5h-18.7c-21.2 30-92.1 35.5-92.1 35.5-101.1 3.2-99.4-42.7-99.4-42.7 0.2-26.2 17.4-49.3 42.4-57.1-16.5-22.6-29.9-47.2-39.9-73.4-63.2 101.9-57.1-14.2-57.1-14.2 8.6-43.3 30-82.9 61.5-113.8-6.9-62.5 19.2-73.4 19.2-73.4C342.5 227 508.3 230.4 512 230.4c3.7 0.1 169.5-3.5 174.8 189.7 0 0 26.1 11 19.2 73.4 31.5 30.9 53 70.5 61.5 113.8 0 0 6.1 116.2-57 14.2z" fill="#4FA7E8" p-id="2666"></path></svg>