<?xml version="1.0" standalone="no"?><!DOCTYPE svg PUBLIC "-//W3C//DTD SVG 1.1//EN" "http://www.w3.org/Graphics/SVG/1.1/DTD/svg11.dtd"><svg t="1736750494549" class="icon" viewBox="0 0 1024 1024" version="1.1" xmlns="http://www.w3.org/2000/svg" p-id="1194" xmlns:xlink="http://www.w3.org/1999/xlink" width="200" height="200"><path d="M1024.2816 166.528v633.3696c-11.0592 0.5376-22.0928 0.9728-33.152 1.5616-18.688 0.9984-37.4528 2.0224-56.1408 3.1488-17.1776 0.9728-34.3808 2.0992-51.5328 3.0464l-86.9632 4.7104c-17.664 0.9984-35.4048 2.0992-53.0432 3.1488l-82.304 4.6592-54.656 3.0976c-26.9312 1.5616-53.8624 3.0976-80.7424 4.7104-17.664 1.024-35.3792 2.0992-53.0688 3.072-28.4672 1.5872-56.96 3.1232-85.4272 4.736-17.6896 0.9472-35.3536 2.0992-53.0688 3.0976-28.4672 1.5872-56.96 3.0464-85.4272 4.6848-17.664 0.9728-35.3536 2.0992-53.0432 3.072-28.4672 1.5872-56.9856 3.0976-85.4528 4.7104-17.664 0.9984-35.3536 2.0992-53.0432 3.1232-19.0208 0.9472-37.9648 1.9712-56.9344 2.9952V220.9536c6.4-0.512 12.7488-1.152 19.1488-1.5104l90.88-4.7104c18.9952-0.9728 37.9648-2.048 56.96-3.072 29.2352-1.5616 58.496-3.1488 87.7824-4.6848 20.0192-1.0496 40.0384-2.048 60.0576-3.1232l87.7824-4.6592c18.4832-1.024 36.9408-2.1248 55.424-3.0976 20.2752-1.0752 40.5504-2.1248 60.8512-3.1488 20.2752-1.024 40.5504-2.0224 60.8512-3.1232l86.9376-4.6592c19.2512-1.0496 38.5024-2.0992 57.7536-3.0976a22443.776 22443.776 0 0 1 60.1088-3.1488c20.5568-1.024 41.0624-2.048 61.5936-3.1232l60.1088-3.1232c19.2512-0.9984 38.5024-2.0736 57.7536-3.0976L1024.2816 166.528z m-234.2912 267.4176c9.088-4.3264 16.9216-7.9872 24.704-11.776 28.16-13.7216 56.1152-27.6736 84.4032-41.1136 8.448-4.0192 12.8-8.704 11.904-18.9184-1.152-12.6208-0.3072-25.3952-0.3072-38.0928v-35.1488c-6.5024 0.7936-11.9552 1.7664-17.5104 2.0736-28.7488 1.664-57.472 3.1232-86.1952 4.7616-16.896 0.9216-33.792 2.2272-50.7392 3.0464-24.6528 1.1776-49.3568 2.1248-74.0608 3.1744-2.5856 0.128-5.1456 0.6144-7.7056 0.512-4.1472-0.1792-8.7808 0.3584-12.3392-1.2288-18.56-8.2432-36.8128-17.1008-55.9872-26.0608-1.024 1.28-2.304 2.6112-3.2512 4.1472-23.296 37.1968-46.4128 74.4704-70.0672 111.4624-3.2512 5.0944-0.9472 6.1952 2.7648 7.552 16.4352 5.9392 33.1264 11.1872 49.2032 17.9456 8.4224 3.5584 11.264 0.3584 15.1296-6.1952 10.1376-17.2288 21.12-34.0736 31.9488-50.9184 1.2032-1.8432 3.5584-3.8912 5.5552-4.096 8.3712-0.9472 16.8448-1.2288 25.3184-1.7408 17.4336-1.024 34.816-2.2016 52.2752-3.072 24.1408-1.1776 48.3584-2.1248 72.5248-3.2 2.7648-0.128 5.5808-0.768 8.3456-0.9216 12.7232-0.7424 25.4208-1.3824 37.6576-2.048 3.0976 8.192-0.9728 11.1104-6.9632 14.0032-33.2032 16.0512-66.1504 32.5376-99.3536 48.5888a13.8752 13.8752 0 0 1-9.7536 0.7936c-21.6576-7.8848-43.1104-16.2816-64.64-24.448-16.9984-6.4256-17.024-6.4-27.1104 8.576-1.3312 1.8944-2.688 3.7376-3.9424 5.632-5.6064 8.6528-11.2128 17.3056-16.9472 26.2912l50.5344 18.7136c-28.2624 14.1056-55.7056 27.8528-83.2256 41.3184-3.2768 1.5872-7.424 1.6896-11.2128 1.9456-8.8064 0.6144-17.664 0.896-26.4448 1.3056v48.128c15.4624 0 30.5408 0.1536 45.6448-0.1536a24.8576 24.8576 0 0 0 10.1376-2.6624c37.4272-18.3296 74.88-36.6592 112.1024-55.3728 13.2352-6.656 25.0624-9.3696 40.192-2.7136 28.4672 12.4928 58.1376 22.3744 87.552 32.512 14.72 5.0944 28.6464 13.7728 45.3376 11.7248 6.4-0.768 12.8-1.024 19.1488-1.5872 6.8352-0.5888 13.568-1.28 20.1472-1.8944v-50.1248c-6.528 0.768-12.3392 1.8944-18.1504 2.0224-6.912 0.128-14.1312 0.5376-20.6336-1.28-12.1856-3.4048-23.936-8.2432-35.7632-12.672-16.3584-6.0416-32.6656-12.2112-50.2272-18.7904z m-466.304-111.36v213.3248c-19.84 1.408-38.784 2.9184-57.728 4.0448a9676.032 9676.032 0 0 1-86.2464 4.7104c-14.6688 0.6912-29.3632 0.896-44.032 1.6128-9.1648 0.4864-18.2784 1.536-27.52 2.2784v49.9712l148.3776-8.2176c-18.5088 24.5504-36.8128 48.3072-54.4768 72.5504-7.2704 10.0096-15.0016 15.7696-28.416 14.4384-12.1856-1.1776-24.6528 0.5376-36.992 1.28-8.9344 0.5376-17.792 1.536-27.4176 2.3808 0 15.1552-0.1536 30.3872 0.2304 45.568 0.0512 1.5872 3.456 4.6336 5.1456 4.5312 29.4144-1.7408 58.8288-3.9424 88.2176-5.8112 13.6192-0.8192 27.2896-0.9984 40.9344-1.6896a8.7808 8.7808 0 0 0 5.4016-3.0976c8.9344-11.4432 17.5616-23.0656 26.3168-34.6624 21.5808-28.3392 43.0592-56.8064 64.896-84.9408 5.8368-7.5264 10.1888-16.8448 22.1696-17.3568 28.7744-1.2032 57.4976-3.072 86.2464-4.608 12.0832-0.5888 24.192-0.8192 36.2752-1.7664 1.92-0.128 5.1456-2.9696 5.1968-4.6848 0.4352-14.0032 0.3584-28.0064 0.0512-42.0096-0.0512-1.3824-2.6624-3.84-4.0192-3.7888-16.1792 0.5888-32.3072 1.5104-48.4608 2.4832-12.7744 0.7936-25.5232 1.7664-39.296 2.7136v-213.3504l-74.8544 4.096z m210.5344 276.5568c2.6624 0 4.6592 0.1024 6.6304-0.0512 15.3856-0.9472 30.6688-2.2528 46.0544-2.9952 15.4624-0.768 30.9248-1.0752 46.3872-1.6384 2.7904-0.1024 5.6064-0.6912 8.3968-0.7936 14.7456-0.8448 29.5168-1.5872 45.2096-2.4576v106.752l76.1344-4.1984v-106.2912c6.9376-0.8192 12.9792-1.8176 19.0464-2.2528 17.664-1.152 35.3792-2.304 53.0176-3.0976 24.704-1.2032 49.408-2.1504 74.0864-3.1744 1.9968-0.0768 3.9168-0.384 5.8624-0.5376v-50.9696c-13.9008 1.152-27.2896 2.56-40.7552 3.2-24.448 1.3056-48.8448 2.1504-73.2928 3.2512-2.5088 0.1024-4.992 0.8448-7.552 0.9984-10.0864 0.5888-20.096 1.1008-30.7456 1.6896V512l-76.2624 4.608v24.0384c-20.0448 1.408-39.2448 2.9696-58.4448 4.0192-24.6528 1.28-49.3568 1.9968-74.0352 3.2512-6.5536 0.3072-13.056 1.4336-19.6864 2.1504v49.1008h-0.0512z m-175.3856-4.6336l-0.8192 2.9184 58.9312 115.6352 82.688-4.5312c-0.1792-1.92-0.0768-2.5088-0.2816-2.9184-17.2544-33.9968-34.688-67.84-51.712-101.9392-4.096-8.1408-9.088-12.2624-18.7392-10.9056-9.3696 1.3568-18.9184 1.5104-28.416 1.6896-13.8752 0.2048-27.7504 0.0512-41.6512 0.0512z m174.6688 112.0512c4.1728 0 7.0144 0.1024 9.8304-0.0512 19.5584-0.9984 38.9888-2.3552 58.496-2.8928 5.4784-0.1536 7.9104-1.9456 10.2912-6.8096 11.648-23.1424 23.9104-46.0288 35.8144-68.992 3.7376-7.1168 7.2192-14.3872 11.4688-22.8864-7.9104 0.7424-14.208 1.6128-20.5568 1.9456-14.9504 0.6656-29.8496 0.9728-44.7488 1.6128-6.9888 0.3584-12.6464 2.0992-15.5392 10.1376-3.0464 8.2432-8.0896 15.7696-12.2624 23.7056L533.504 706.56z m395.8016-22.656c-0.2304-1.2288-0.0768-2.6624-0.6656-3.6352-16.4608-27.392-32.9472-54.784-49.4848-82.0992-2.2272-3.7376-4.864-5.7344-9.7792-5.376-18.4576 1.3312-36.9152 2.1504-55.3728 3.2512-4.352 0.3072-8.6784 0.9472-13.7984 1.5616 17.536 29.1072 34.304 57.1392 51.3792 85.0688 1.408 2.2272 4.4544 4.9152 6.7072 4.9152a1098.24 1098.24 0 0 0 48.6656-1.4848c7.3472-0.3072 14.6176-1.408 22.3488-2.2016z m-647.552-171.0848c-0.1792-0.9984-0.1024-1.6128-0.3584-1.9712-15.7952-20.0192-31.9744-39.7312-47.232-60.1344-7.3984-9.856-15.2832-15.2064-28.2624-13.6192-16.0256 1.9968-32.256 2.2528-48.384 3.3536-5.6832 0.384-11.3152 1.1008-17.0752 1.664 0.256 1.6128 0.1792 2.2272 0.4608 2.56 16.1536 20.4032 32.5888 40.5504 48.4096 61.2096 6.6816 8.704 13.5424 13.9008 25.5744 12.6208 19.6608-2.0736 39.5008-2.2784 59.264-3.4816 2.5856-0.1792 5.12-1.4592 7.6032-2.2016z m0.896-93.2864c-2.5088-3.5328-4.3008-6.272-6.2976-8.8064-13.2096-16.8192-26.7264-33.3568-39.6032-50.4064-8.2176-10.88-15.8976-20.0448-32.2048-16.7936-12.4672 2.5088-25.6256 1.28-38.4512 1.9968-8.5248 0.512-17.024 1.536-26.6496 2.4064 19.9168 25.4208 39.1168 50.048 58.5728 74.4448 1.28 1.6128 4.5568 2.432 6.8096 2.3296 16.3584-0.7936 32.6912-1.8944 49.0752-2.9952 9.1648-0.5888 18.304-1.3824 28.7488-2.176z" fill="#D81E06" p-id="1195"></path></svg>