<?xml version="1.0" standalone="no"?><!DOCTYPE svg PUBLIC "-//W3C//DTD SVG 1.1//EN" "http://www.w3.org/Graphics/SVG/1.1/DTD/svg11.dtd"><svg t="1736236688993" class="icon" viewBox="0 0 1024 1024" version="1.1" xmlns="http://www.w3.org/2000/svg" p-id="2521" xmlns:xlink="http://www.w3.org/1999/xlink" width="200" height="200"><path d="M512 512m-512 0a512 512 0 1 0 1024 0 512 512 0 1 0-1024 0Z" fill="#65A731" p-id="2522"></path><path d="M413.61007 239.086098c-137.072783 0-249.34042 92.833119-249.34042 211.559832 0 69.087776 36.706462 125.214434 99.306518 168.394294l-24.819469 74.472727 87.433846-43.17986c31.307189 6.473399 56.126657 12.961119 87.433847 12.961119 7.561846 0 15.109371-1.074126 23.745342-1.074126-4.325147-16.197818-7.561846-33.469762-7.561846-51.815832 0-109.016615 92.833119-197.524587 211.559832-197.524588 7.547524 0 16.183497 0 23.745343 1.074126-21.582769-100.394965-129.525259-174.867692-251.502993-174.867692z m-83.108699 179.178517a38.869035 38.869035 0 1 1 0.014321-77.723748 38.869035 38.869035 0 0 1-0.014321 77.723748z m193.213762-6.287216a38.854713 38.854713 0 1 1-38.869035-67.297567 38.854713 38.854713 0 0 1 38.869035 67.297567z" fill="#FFFFFF" p-id="2523"></path><path d="M865.87435 608.241678c0-99.306517-99.306517-180.266965-211.559833-180.266965-118.726713 0-211.559832 80.960448-211.559832 180.266965s92.833119 180.266965 211.559832 180.266965c24.83379 0 49.653259-6.473399 74.472728-12.946797l67.999328 37.780588-18.34607-62.600056c50.741706-37.809231 87.433846-87.46249 87.433847-142.5007z m-276.322462-29.144615a26.96772 26.96772 0 1 1-0.014322-53.949762 26.96772 26.96772 0 0 1 0.014322 53.949762z m150.578126-1.460811a26.953399 26.953399 0 0 1-40.473063-23.358658 26.982042 26.982042 0 1 1 40.473063 23.358658z" fill="#FFFFFF" p-id="2524"></path></svg>