<?xml version="1.0" standalone="no"?><!DOCTYPE svg PUBLIC "-//W3C//DTD SVG 1.1//EN" "http://www.w3.org/Graphics/SVG/1.1/DTD/svg11.dtd"><svg t="1736237478993" class="icon" viewBox="0 0 1024 1024" version="1.1" xmlns="http://www.w3.org/2000/svg" p-id="1352" xmlns:xlink="http://www.w3.org/1999/xlink" width="200" height="200"><path d="M512 1023.999078A512.132659 512.132659 0 0 1 312.709299 40.232924a512.132659 512.132659 0 0 1 398.581402 943.533231A508.784182 508.784182 0 0 1 512 1023.999078zM316.416176 327.679705a9.144312 9.144312 0 0 0-9.215992 9.011192v319.487712a9.154552 9.154552 0 0 0 9.215992 9.021432h139.745154a56.391629 56.391629 0 0 1 48.199637 27.023336 9.123832 9.123832 0 0 0 15.267826 0 56.319949 56.319949 0 0 1 48.209877-26.951656H707.583824a9.154552 9.154552 0 0 0 9.215992-9.021432v-319.487712a9.113592 9.113592 0 0 0-9.215992-9.011192H567.88987A55.20379 55.20379 0 0 0 512 382.095016a53.411792 53.411792 0 0 0-16.383985-38.461405A56.197069 56.197069 0 0 0 456.21253 327.679705z m88.70904 147.455867h-51.384274a8.560632 8.560632 0 0 1-8.663032-8.437752v-19.967982a8.560632 8.560632 0 0 1 8.663032-8.437752h51.425234a8.560632 8.560632 0 0 1 8.663032 8.437752v19.967982a8.560632 8.560632 0 0 1-8.663032 8.437752z m36.741087-73.727933h-88.166321a8.560632 8.560632 0 0 1-8.663032-8.437753v-19.967982a8.560632 8.560632 0 0 1 8.663032-8.437752h88.166321a8.560632 8.560632 0 0 1 8.652792 8.437752v19.967982a8.560632 8.560632 0 0 1-8.611832 8.437753z" fill="#FABC14" p-id="1353"></path></svg>