<?xml version="1.0" standalone="no"?><!DOCTYPE svg PUBLIC "-//W3C//DTD SVG 1.1//EN" "http://www.w3.org/Graphics/SVG/1.1/DTD/svg11.dtd"><svg t="1736237221964" class="icon" viewBox="0 0 1024 1024" version="1.1" xmlns="http://www.w3.org/2000/svg" p-id="983" xmlns:xlink="http://www.w3.org/1999/xlink" width="200" height="200"><path d="M553.618286 763.977143H865.718857c60.562286 0 109.348571-49.152 109.348572-109.714286V146.285714a109.714286 109.714286 0 0 0-109.714286-109.714285H158.646857A109.714286 109.714286 0 0 0 48.932571 146.285714v507.977143c0 60.562286 48.713143 109.714286 109.348572 109.714286H470.381714l-0.146285 0.658286v139.410285H251.904a41.691429 41.691429 0 1 0 0 83.456h520.192a41.691429 41.691429 0 1 0 0-83.456H553.764571v-139.410285l-0.146285-0.658286zM158.646857 117.028571h706.779429c19.529143 0 29.257143 9.728 29.257143 29.257143v507.977143c0 19.529143-9.654857 29.257143-28.891429 29.257143H158.208a28.818286 28.818286 0 0 1-28.818286-29.257143V146.285714c0-19.529143 9.728-29.257143 29.257143-29.257143z m93.549714 179.712a54.857143 54.857143 0 0 1 109.714286 0 54.857143 54.857143 0 0 1-109.714286 0z m483.035429 36.352h-292.571429a36.571429 36.571429 0 0 1 0-73.142857h292.571429a36.571429 36.571429 0 0 1 0 73.142857zM252.196571 502.637714a54.857143 54.857143 0 0 1 109.714286 0 54.857143 54.857143 0 0 1-109.714286 0z m483.035429 36.425143h-292.571429a36.571429 36.571429 0 0 1 0-73.142857h292.571429a36.571429 36.571429 0 0 1 0 73.142857z" fill="#1296db" p-id="984"></path></svg>