<?xml version="1.0" standalone="no"?><!DOCTYPE svg PUBLIC "-//W3C//DTD SVG 1.1//EN" "http://www.w3.org/Graphics/SVG/1.1/DTD/svg11.dtd"><svg t="1736236834611" class="icon" viewBox="0 0 1390 1024" version="1.1" xmlns="http://www.w3.org/2000/svg" p-id="948" xmlns:xlink="http://www.w3.org/1999/xlink" width="271.484375" height="200"><path d="M1279.461328 1023.998758h-73.995772a7.040297 7.040297 0 1 1 0-14.080594h73.995772a7.040297 7.040297 0 1 1 0 14.080594zM1151.650562 1023.998758H167.345221a7.040297 7.040297 0 1 1 0-14.080594h984.305341a7.040297 7.040297 0 1 1 0 14.080594zM135.263372 1023.998758H111.45999a7.040297 7.040297 0 1 1 0-14.080594h23.803382a7.040297 7.040297 0 1 1 0 14.080594z" fill="#7ECAFC" p-id="949"></path><path d="M137.455315 529.671531c-0.699186-7.821449-7.606601-13.593772-15.426807-12.894586a14.627028 14.627028 0 0 0-9.558859 5.065686 13.660834 13.660834 0 0 0-3.179248 10.316414 14.60219 14.60219 0 0 0 5.140199 9.557616 13.088321 13.088321 0 0 0 9.003732 3.381678h1.126398c7.818965-0.699186 13.59253-7.605359 12.894585-15.426808z m-8.663452 11.406797a11.529744 11.529744 0 0 1-12.756736-1.398373 10.561067 10.561067 0 0 1-4.0523-7.801578 11.539679 11.539679 0 0 1 2.593075-8.488346 10.578453 10.578453 0 0 1 7.821448-4.053542h1.033256a11.447779 11.447779 0 0 1 11.508632 10.475376 11.532228 11.532228 0 0 1-6.147375 11.266463zM1265.064051 158.833279c-0.968677-10.820623-10.527536-18.809727-21.346917-17.841049a20.221761 20.221761 0 0 0-13.223687 7.008008 18.901627 18.901627 0 0 0-4.401273 14.27433 20.210584 20.210584 0 0 0 7.113569 13.224929 18.108057 18.108057 0 0 0 12.457439 4.679457h1.558577c10.819381-0.964952 18.808485-10.522568 17.842292-21.345675z m-11.986761 15.783232a15.955855 15.955855 0 0 1-17.652282-1.934871 14.6084 14.6084 0 0 1-5.608394-10.794543 15.96579 15.96579 0 0 1 3.587832-11.745834 14.639447 14.639447 0 0 1 10.821865-5.608393h1.430662c8.279708-0.074514 15.221895 6.241759 15.922323 14.494145a15.947161 15.947161 0 0 1-8.502006 15.589496zM235.502849 99.852006a3.055059 3.055059 0 0 1-3.055059-3.055059V77.042138l-13.951437 13.95268a3.132057 3.132057 0 0 1-4.428595-4.427352l13.955164-13.95268h-19.790824a3.06872 3.06872 0 1 1 0-6.138682h19.790824l-13.955164-13.786266a2.915967 2.915967 0 0 1 0-4.427352 2.914725 2.914725 0 0 1 2.215539-1.015869c0.850697 0 1.656687 0.368843 2.213056 1.015869l13.951437 13.818555V42.323749a3.051334 3.051334 0 0 1 4.693118-3.164346 3.04264 3.04264 0 0 1 1.277909 3.164346v19.757292l14.089287-13.953922a2.918451 2.918451 0 0 1 4.428595 0 2.918451 2.918451 0 0 1 0 4.427353l-13.955164 13.955163h19.756051a3.067478 3.067478 0 1 1 0 6.136198h-19.756051l13.955164 13.956406c0.791086 0.787361 1.097834 1.94108 0.809714 3.021528a3.138266 3.138266 0 0 1-2.213055 2.215539 3.134541 3.134541 0 0 1-3.025254-0.813441L238.418817 77.040896v19.756051c0.336553 1.71133-1.372293 3.053817-3.051334 3.053817h0.135366zM216.146689 940.446611h-8.443638v-8.444879c0-1.404582-1.136333-2.540915-2.540915-2.540915s-2.540915 1.136333-2.540915 2.540915v8.444879h-8.443637a2.539673 2.539673 0 1 0 0 5.081831h8.443637v8.443637a2.529738 2.529738 0 0 0 2.528496 2.526013l0.02608-0.109287a2.521045 2.521045 0 0 0 2.527254-2.528496v-8.330625h8.443638a2.542157 2.542157 0 0 0 0-5.083073zM1217.115764 883.169217c0 16.738248-11.334767 29.903566-25.352025 29.903566 14.05824 0 25.352025 13.391343 25.352025 29.904808 0-16.740732 11.336009-29.904808 25.348299-29.904808-14.05824 0.001242-25.348299-13.386376-25.348299-29.903566z m0 0" fill="#CCCCCC" p-id="950"></path><path d="M988.198679 129.231493H402.550016C319.268602 129.231493 252.104489 196.395606 252.104489 279.675778v586.993634c0 81.935201 67.164113 149.094346 150.445527 149.094347h586.992392c81.936443 0 149.095588-67.159146 149.095588-150.443044V279.675778c-0.001242-83.280172-67.160387-150.444285-150.439317-150.444285z" fill="#DFEFF7" p-id="951"></path><path d="M326.618131 866.669412v-586.993634c0-83.280172 67.164113-150.444285 150.445527-150.444285h-74.513642C319.268602 129.231493 252.104489 196.395606 252.104489 279.675778v586.993634c0 81.935201 67.164113 149.094346 150.445527 149.094347h74.513642c-83.281414 0-150.445527-67.159146-150.445527-149.094347z" fill="#C7E6F9" p-id="952"></path><path d="M989.542408 1022.804056H402.550016c-86.838198 0-157.485824-70.04034-157.485824-156.134644v-586.993634c0-42.158577 16.355744-81.732772 46.054398-111.431426s69.272849-46.054398 111.431426-46.054398h585.648663c42.157335 0 81.73153 16.355744 111.428942 46.054398 29.69617 29.698654 46.050673 69.271607 46.050673 111.431426v326.867752a7.040297 7.040297 0 1 1-14.080595 0V279.675778c0-79.072635-64.328869-143.403988-143.39902-143.403988H402.550016c-79.073877 0-143.403988 64.330111-143.403988 143.403988v586.993634c0 78.327499 64.330111 142.054049 143.403988 142.054049h586.992392c78.328741 0 142.055291-64.330111 142.055291-143.402746v-51.587036a7.040297 7.040297 0 1 1 14.080595 0v51.587036c-0.001242 86.836957-70.042824 157.483341-156.135886 157.483341z" fill="#7ECAFC" p-id="953"></path><path d="M1138.636754 709.003513a7.040297 7.040297 0 0 1-7.040297-7.040297v-58.989966a7.040297 7.040297 0 1 1 14.080595 0v58.989966a7.040297 7.040297 0 0 1-7.040298 7.040297z" fill="#7ECAFC" p-id="954"></path><path d="M954.570672 420.071899c10.849186-38.03673 14.968549-111.368089-52.936975-120.842499-54.306784-6.79937-119.467722 28.492775-153.455878 51.631744-10.844219-1.373535-23.068182-2.744586-35.288419-2.744585-88.30115-1.373535-145.286699 28.492775-194.173858 92.34724-17.64483 23.068182-33.91861 62.482173-39.409023 107.247485 24.442958-42.087789 100.516419-119.468964 180.645906-150.711292 0 0-120.842499 86.925131-180.645906 209.138681v1.372292c-2.744586 5.425835-5.423351 10.850428-8.170421 17.646073-58.361568 145.285457-10.847944 207.76763 33.985672 218.616816 40.716738 10.847944 97.774317-9.476893 143.911922-58.361568 77.381175 17.643589 154.829413-2.745828 183.32343-17.648556 54.312994-29.863826 92.34724-82.804527 100.520145-137.183341H783.468722s-6.795644 47.513624-86.92389 47.513624c-73.327633 0-77.381175-85.551596-77.381175-85.551596h316.387408s5.425835-92.344757-39.407781-153.452153c-25.817735-33.921094-59.737587-63.855707-107.248727-80.129487 14.968549-10.845461 39.412749-27.190028 61.107396-32.613379 40.715496-10.845461 67.906766-4.049816 85.550354 25.817735 23.071907 40.716738-13.593772 134.437513-13.593772 134.437513s21.761709-27.120482 32.612137-66.530747zM627.337804 779.987693c-62.480931 51.634228-114.046855 44.8361-134.437513 14.967307-17.648556-27.19127-20.393142-74.70241 0-141.234399 9.47441 25.817735 24.442958 50.25821 46.137605 71.956582 27.188786 27.122966 57.056338 44.766554 88.299908 54.31051z m-2.749554-264.822726s2.749553-61.107396 69.281543-66.531989c57.056338-5.424593 86.920163 20.393142 96.398298 69.2803l-165.679841-2.748311z m0 0" fill="#B1DDFC" p-id="955"></path></svg>